<svg id="visual" viewBox="0 0 900 675" width="900" height="675" xmlns="http://www.w3.org/2000/svg" xmlns:xlink="http://www.w3.org/1999/xlink" version="1.1"><rect x="0" y="0" width="900" height="675" fill="#140021"></rect><path d="M0 454L225 454L225 425L450 425L450 389L675 389L675 406L900 406L900 418L900 676L900 676L675 676L675 676L450 676L450 676L225 676L225 676L0 676Z" fill="#9900ff"></path><path d="M0 498L225 498L225 506L450 506L450 506L675 506L675 520L900 520L900 455L900 676L900 676L675 676L675 676L450 676L450 676L225 676L225 676L0 676Z" fill="#8200d9"></path><path d="M0 568L225 568L225 559L450 559L450 560L675 560L675 531L900 531L900 522L900 676L900 676L675 676L675 676L450 676L450 676L225 676L225 676L0 676Z" fill="#6c00b4"></path><path d="M0 586L225 586L225 635L450 635L450 578L675 578L675 623L900 623L900 595L900 676L900 676L675 676L675 676L450 676L450 676L225 676L225 676L0 676Z" fill="#560090"></path></svg>