<svg id="visual" viewBox="0 0 900 675" width="900" height="675" xmlns="http://www.w3.org/2000/svg" xmlns:xlink="http://www.w3.org/1999/xlink" version="1.1"><rect x="0" y="0" width="900" height="675" fill="#140021"></rect><path d="M0 412L225 412L225 381L450 381L450 394L675 394L675 393L900 393L900 444L900 676L900 676L675 676L675 676L450 676L450 676L225 676L225 676L0 676Z" fill="#9900ff"></path><path d="M0 516L225 516L225 504L450 504L450 518L675 518L675 472L900 472L900 458L900 676L900 676L675 676L675 676L450 676L450 676L225 676L225 676L0 676Z" fill="#8200d9"></path><path d="M0 565L225 565L225 545L450 545L450 557L675 557L675 521L900 521L900 544L900 676L900 676L675 676L675 676L450 676L450 676L225 676L225 676L0 676Z" fill="#6c00b4"></path><path d="M0 591L225 591L225 609L450 609L450 637L675 637L675 595L900 595L900 610L900 676L900 676L675 676L675 676L450 676L450 676L225 676L225 676L0 676Z" fill="#560090"></path></svg>