<svg id="visual" viewBox="0 0 900 675" width="900" height="675" xmlns="http://www.w3.org/2000/svg" xmlns:xlink="http://www.w3.org/1999/xlink" version="1.1"><rect x="0" y="0" width="900" height="675" fill="#140021"></rect><path d="M0 382L225 382L225 462L450 462L450 439L675 439L675 390L900 390L900 450L900 676L900 676L675 676L675 676L450 676L450 676L225 676L225 676L0 676Z" fill="#9900ff"></path><path d="M0 482L225 482L225 447L450 447L450 447L675 447L675 501L900 501L900 525L900 676L900 676L675 676L675 676L450 676L450 676L225 676L225 676L0 676Z" fill="#8200d9"></path><path d="M0 522L225 522L225 581L450 581L450 550L675 550L675 544L900 544L900 538L900 676L900 676L675 676L675 676L450 676L450 676L225 676L225 676L0 676Z" fill="#6c00b4"></path><path d="M0 601L225 601L225 596L450 596L450 618L675 618L675 589L900 589L900 602L900 676L900 676L675 676L675 676L450 676L450 676L225 676L225 676L0 676Z" fill="#560090"></path></svg>